<svg width="20" height="20" viewBox="0 0 24 24" xmlns="http://www.w3.org/2000/svg">
  <path 
    fill="#FFFFFF" 
    d="M12.001 2c5.523 0 10 4.477 10 10s-4.477 10-10 10a9.954 9.954 0 0 1-5.03-1.355L2.005 22l1.352-4.968A9.953 9.953 0 0 1 2.001 12c0-5.523 4.477-10 10-10ZM8.593 7.3l-.2.008a.961.961 0 0 0-.372.1a1.293 1.293 0 0 0-.294.228c-.12.113-.188.211-.261.306A2.73 2.73 0 0 0 6.9 9.62c.002.49.13.967.33 1.413.409.902 1.082 1.857 1.971 2.742.214.213.424.427.65.626a9.448 9.448 0 0 0 3.84 2.046l.569.087c.185.01.37-.004.556-.013a1.99 1.99 0 0 0 .833-.231a4.83 4.83 0 0 0 .383-.22s.043-.028.125-.09c.135-.1.218-.171.318-.288.053-.06.147-.187.17-.272a6.96 6.96 0 0 0 .127-.553l.023-.158a.785.785 0 0 0-.032-.337.946.946 0 0 0-.219-.374c-.098-.115-.126-.141-.235-.247l-.375-.393c-.158-.161-.34-.245-.555-.245a.834.834 0 0 0-.446.107l-.051.037c-.105.077-.19.146-.285.22l-.119.094a.649.649 0 0 1-.237.094a.6.6 0 0 1-.258-.016a8.945 8.945 0 0 1-2.29-1.39a7.793 7.793 0 0 1-.704-.666a3.043 3.043 0 0 1-.257-.314a.602.602 0 0 1-.054-.285c.005-.071.027-.135.061-.194a.405.405 0 0 1 .064-.099l.087-.103a2.12 2.12 0 0 1 .194-.185a1.798 1.798 0 0 0 .141-.131c.127-.122.207-.264.225-.429a.775.775 0 0 0-.057-.375l-.039-.105a9.34 9.34 0 0 0-.468-1.037a1.11 1.11 0 0 0-.31-.37a.935.935 0 0 0-.562-.2Z"/>
</svg>
